<svg width="96" height="93" viewBox="0 0 96 93" fill="none" xmlns="http://www.w3.org/2000/svg">
<g filter="url(#filter0_d)">
<circle cx="47.5" cy="47.5" r="29" stroke="#00FFC2" stroke-width="3"/>
</g>
<circle cx="48" cy="38" r="8" stroke="#00FFC2" stroke-width="2"/>
<mask id="path-4-inside-1" fill="white">
<path d="M34.8421 62C34.377 62 33.9974 61.6225 34.0253 61.1583C34.2303 57.7523 35.6741 54.527 38.1005 52.1005C40.726 49.475 44.2869 48 47.9999 48C51.7129 48 55.2739 49.4749 57.8994 52.1004C60.3258 54.5268 61.7696 57.7521 61.9747 61.1581C62.0026 61.6224 61.623 61.9998 61.1579 61.9998V61.9998C60.6928 61.9998 60.3188 61.6223 60.287 61.1583C60.0845 58.1994 58.819 55.4018 56.7085 53.2913C54.3988 50.9817 51.2663 49.6842 47.9999 49.6842C44.7336 49.6842 41.601 50.9818 39.2914 53.2914C37.1809 55.4019 35.9155 58.1995 35.713 61.1585C35.6812 61.6225 35.3072 62 34.8421 62V62Z"/>
</mask>
<path d="M34.8421 62C34.377 62 33.9974 61.6225 34.0253 61.1583C34.2303 57.7523 35.6741 54.527 38.1005 52.1005C40.726 49.475 44.2869 48 47.9999 48C51.7129 48 55.2739 49.4749 57.8994 52.1004C60.3258 54.5268 61.7696 57.7521 61.9747 61.1581C62.0026 61.6224 61.623 61.9998 61.1579 61.9998V61.9998C60.6928 61.9998 60.3188 61.6223 60.287 61.1583C60.0845 58.1994 58.819 55.4018 56.7085 53.2913C54.3988 50.9817 51.2663 49.6842 47.9999 49.6842C44.7336 49.6842 41.601 50.9818 39.2914 53.2914C37.1809 55.4019 35.9155 58.1995 35.713 61.1585C35.6812 61.6225 35.3072 62 34.8421 62V62Z" stroke="#00FFC2" stroke-width="10" mask="url(#path-4-inside-1)"/>
<defs>
<filter id="filter0_d" x="1" y="2" width="91" height="91" filterUnits="userSpaceOnUse" color-interpolation-filters="sRGB">
<feFlood flood-opacity="0" result="BackgroundImageFix"/>
<feColorMatrix in="SourceAlpha" type="matrix" values="0 0 0 0 0 0 0 0 0 0 0 0 0 0 0 0 0 0 127 0"/>
<feMorphology radius="1" operator="dilate" in="SourceAlpha" result="effect1_dropShadow"/>
<feOffset dx="-1"/>
<feGaussianBlur stdDeviation="7"/>
<feColorMatrix type="matrix" values="0 0 0 0 0 0 0 0 0 1 0 0 0 0 0.76 0 0 0 1 0"/>
<feBlend mode="normal" in2="BackgroundImageFix" result="effect1_dropShadow"/>
<feBlend mode="normal" in="SourceGraphic" in2="effect1_dropShadow" result="shape"/>
</filter>
</defs>
</svg>
