<svg width="91" height="91" viewBox="0 0 91 91" fill="none" xmlns="http://www.w3.org/2000/svg">
<g filter="url(#filter0_d)">
<circle cx="46.5" cy="45.5" r="29" stroke="#00FFC2" stroke-width="3"/>
</g>
<path d="M54.5404 37.198L52.5449 35.3044L52.5423 35.3021C52.5387 35.2996 52.5339 35.2997 52.5305 35.3024L52.5281 35.3048L43.3197 45.0084L43.3189 45.0093C43.3178 45.0106 43.317 45.0121 43.3167 45.0138L43.3165 45.015L43.0086 47.3378C43.0082 47.3401 43.0081 47.3413 43.0081 47.3422C43.0084 47.3475 43.0128 47.3517 43.0182 47.3517C43.0191 47.3517 43.0202 47.3515 43.0225 47.351L45.326 46.9219L45.3272 46.9217C45.3288 46.9213 45.3304 46.9204 45.3316 46.9193L45.3325 46.9184L54.5408 37.2148L54.5431 37.2123C54.5456 37.2087 54.5455 37.2039 54.5428 37.2004L54.5404 37.198Z" fill="#00FFC2"/>
<path d="M55.8574 35.8101L53.8619 33.9165L53.8595 33.9141C53.8568 33.9106 53.8567 33.9058 53.8592 33.9022L53.8614 33.8998L55.1703 32.5204C55.8288 31.8265 57.8416 33.7366 57.1831 34.4305L55.8741 35.8098L55.8718 35.8121C55.8684 35.8148 55.8635 35.8149 55.8599 35.8124L55.8574 35.8101Z" fill="#00FFC2"/>
<path d="M54.5404 37.198L52.5449 35.3044L52.5423 35.3021C52.5387 35.2996 52.5339 35.2997 52.5305 35.3024L52.5281 35.3048L43.3197 45.0084L43.3189 45.0093C43.3178 45.0106 43.317 45.0121 43.3167 45.0138L43.3165 45.015L43.0086 47.3378C43.0082 47.3401 43.0081 47.3413 43.0081 47.3422C43.0084 47.3475 43.0128 47.3517 43.0182 47.3517C43.0191 47.3517 43.0202 47.3515 43.0225 47.351L45.326 46.9219L45.3272 46.9217C45.3288 46.9213 45.3304 46.9204 45.3316 46.9193L45.3325 46.9184L54.5408 37.2148L54.5431 37.2123C54.5456 37.2087 54.5455 37.2039 54.5428 37.2004L54.5404 37.198Z" stroke="#00FFC2"/>
<path d="M55.8574 35.8101L53.8619 33.9165L53.8595 33.9141C53.8568 33.9106 53.8567 33.9058 53.8592 33.9022L53.8614 33.8998L55.1703 32.5204C55.8288 31.8265 57.8416 33.7366 57.1831 34.4305L55.8741 35.8098L55.8718 35.8121C55.8684 35.8148 55.8635 35.8149 55.8599 35.8124L55.8574 35.8101Z" stroke="#00FFC2"/>
<path d="M45 34H38C35.7909 34 34 35.7909 34 38V53C34 55.2091 35.7909 57 38 57H52C54.2091 57 56 55.2091 56 53V45.5" stroke="#00FFC2" stroke-width="2.5" stroke-linecap="round" stroke-linejoin="round"/>
<defs>
<filter id="filter0_d" x="0" y="0" width="91" height="91" filterUnits="userSpaceOnUse" color-interpolation-filters="sRGB">
<feFlood flood-opacity="0" result="BackgroundImageFix"/>
<feColorMatrix in="SourceAlpha" type="matrix" values="0 0 0 0 0 0 0 0 0 0 0 0 0 0 0 0 0 0 127 0"/>
<feMorphology radius="1" operator="dilate" in="SourceAlpha" result="effect1_dropShadow"/>
<feOffset dx="-1"/>
<feGaussianBlur stdDeviation="7"/>
<feColorMatrix type="matrix" values="0 0 0 0 0 0 0 0 0 1 0 0 0 0 0.76 0 0 0 1 0"/>
<feBlend mode="normal" in2="BackgroundImageFix" result="effect1_dropShadow"/>
<feBlend mode="normal" in="SourceGraphic" in2="effect1_dropShadow" result="shape"/>
</filter>
</defs>
</svg>
