<svg width="91" height="91" viewBox="0 0 91 91" fill="none" xmlns="http://www.w3.org/2000/svg">
<path fill-rule="evenodd" clip-rule="evenodd" d="M37.3991 62.4356C35.5019 61.887 34.0794 60.3107 33.7277 58.3674C33.7277 58.3603 33.7243 58.3538 33.7208 58.3472C33.7178 58.3417 33.7149 58.3361 33.714 58.3301L30.0799 37.7239C29.8336 36.3306 30.1623 34.8969 30.9909 33.7501C31.8196 32.6032 33.0775 31.8409 34.4777 31.6372L54.9295 28.0312C55.4388 27.9383 55.964 28.0548 56.3863 28.3542C56.8187 28.6487 57.1128 29.1063 57.201 29.622L58.1602 35.0601L58.4035 36.4254L60.8351 50.2295C60.9755 51.0456 60.5883 51.862 59.8674 52.2695L60.3631 55.0811C61.184 55.2103 61.8309 55.8489 61.9709 56.668C61.9939 56.8007 62.0033 56.9355 61.999 57.0701C61.9599 57.577 61.9027 57.8536 61.506 58.2935C61.2153 58.6322 60.8167 58.8603 60.3774 58.9395L59.2214 59.1435L55.465 59.8058L47.9196 61.1364L44.158 61.8027L40.397 62.4638C40.397 62.4638 38.4106 62.9031 37.3991 62.4356ZM39.547 61.2849C38.4352 61.481 37.2927 61.1887 36.4118 60.4826L36.4144 60.4813C35.524 59.7761 34.9864 58.717 34.9426 57.5821C34.8998 55.5697 36.3535 53.8365 38.3426 53.5282L58.7905 49.9229C59.1458 49.8607 59.4843 50.098 59.5471 50.4531C59.6096 50.8084 59.3726 51.1472 59.0174 51.2103L38.4106 54.8444C37.6377 54.9801 36.9667 55.4557 36.5825 56.1399C36.1983 56.8241 36.1416 57.6447 36.4281 58.3752C36.907 59.5504 38.1492 60.2238 39.3953 59.9837L59.9263 56.364C59.9641 56.3572 60.0023 56.3537 60.0407 56.3535C60.3812 56.352 60.6658 56.6121 60.695 56.9513C60.7242 57.2905 60.4882 57.5953 60.1525 57.6521L39.547 61.2849ZM37.7225 56.7872C37.9132 56.4439 38.2482 56.2044 38.6349 56.1351L58.5977 52.6141L59.0554 55.1896L39.1697 58.6956C38.5413 58.8189 37.9111 58.4915 37.6508 57.9064C37.5054 57.5415 37.5317 57.1306 37.7225 56.7872ZM55.9149 29.8496C55.8843 29.676 55.7835 29.5228 55.6364 29.4259C55.4981 29.3257 55.3247 29.2872 55.1571 29.3193L35.8377 32.7259L36.4307 36.0841L37.1245 39.9948L39.2469 52.0426L58.5637 48.6367C58.7837 48.6004 59.0084 48.6017 59.228 48.6406L55.9149 29.8496ZM34.5548 32.9665L35.1433 36.3116L35.837 40.221L37.9607 52.2767C36.4893 52.5738 35.2048 53.4628 34.4084 54.7352L31.3712 37.497C31.3419 37.3264 31.3231 37.1541 31.315 36.9811C31.2701 35.0315 32.6396 33.3344 34.5548 32.9665Z" fill="#00FFC2" stroke="#00FFC2" stroke-width="0.7"/>
<g filter="url(#filter0_d)">
<circle cx="46.5" cy="45.5" r="29" stroke="#00FFC2" stroke-width="3"/>
</g>
<defs>
<filter id="filter0_d" x="0" y="0" width="91" height="91" filterUnits="userSpaceOnUse" color-interpolation-filters="sRGB">
<feFlood flood-opacity="0" result="BackgroundImageFix"/>
<feColorMatrix in="SourceAlpha" type="matrix" values="0 0 0 0 0 0 0 0 0 0 0 0 0 0 0 0 0 0 127 0"/>
<feMorphology radius="1" operator="dilate" in="SourceAlpha" result="effect1_dropShadow"/>
<feOffset dx="-1"/>
<feGaussianBlur stdDeviation="7"/>
<feColorMatrix type="matrix" values="0 0 0 0 0 0 0 0 0 1 0 0 0 0 0.76 0 0 0 1 0"/>
<feBlend mode="normal" in2="BackgroundImageFix" result="effect1_dropShadow"/>
<feBlend mode="normal" in="SourceGraphic" in2="effect1_dropShadow" result="shape"/>
</filter>
</defs>
</svg>
