<svg width="91" height="91" viewBox="0 0 91 91" fill="none" xmlns="http://www.w3.org/2000/svg">
<path d="M58.6857 38.4613H43.3612C42.5048 38.4613 41.7464 37.8779 41.476 37.0085L41.3593 36.6333C40.9072 35.1861 39.6438 34.2134 38.2146 34.2134H33.4962C31.6693 34.2134 30.1818 35.8021 30.1818 37.7533V54.7448C30.1818 56.6974 31.6693 58.2846 33.4962 58.2846H58.6856C60.5139 58.2846 62 56.6973 62 54.7448V42.0011C62.0001 40.05 60.5139 38.4613 58.6857 38.4613ZM60.6743 54.7448C60.6743 55.9158 59.7821 56.8687 58.6857 56.8687H33.4962C32.3998 56.8687 31.5076 55.9158 31.5076 54.7448V37.7533C31.5076 36.5822 32.3998 35.6293 33.4962 35.6293H38.2146C39.071 35.6293 39.8293 36.2127 40.0998 37.0807L40.2164 37.4574C40.6685 38.9045 41.9319 39.8773 43.3612 39.8773H58.6856C59.782 39.8773 60.6742 40.8302 60.6742 42.0012V54.7448H60.6743Z" fill="#00FFC2" stroke="#00FFC2" stroke-width="0.75"/>
<path d="M57.3599 31.3813H34.822C32.9951 31.3813 31.5076 32.9701 31.5076 34.9212C31.5076 35.312 31.8046 35.6292 32.1705 35.6292C32.5364 35.6292 32.8334 35.312 32.8334 34.9212C32.8334 33.7502 33.7256 32.7973 34.8221 32.7973H57.36C58.4564 32.7973 59.3486 33.7502 59.3486 34.9212V39.1691C59.3486 39.5599 59.6456 39.8771 60.0115 39.8771C60.3775 39.8771 60.6744 39.5599 60.6744 39.1691V34.9212C60.6743 32.9701 59.1881 31.3813 57.3599 31.3813Z" fill="#00FFC2" stroke="#00FFC2" stroke-width="0.75"/>
<g filter="url(#filter0_d)">
<circle cx="46.5" cy="45.5" r="29" stroke="#00FFC2" stroke-width="3"/>
</g>
<path d="M38.5469 49.2266L42.2148 50.709V51.8574L37.4219 49.6367V48.7812L42.2148 46.5664V47.7148L38.5469 49.2266ZM44.1426 53.7324H43.2109L46.7734 44.4688H47.6992L44.1426 53.7324ZM52.709 49.1914L48.8359 47.6738V46.5605L53.8398 48.7754V49.6309L48.8359 51.8516V50.7266L52.709 49.1914Z" fill="#00FFC2"/>
<defs>
<filter id="filter0_d" x="0" y="0" width="91" height="91" filterUnits="userSpaceOnUse" color-interpolation-filters="sRGB">
<feFlood flood-opacity="0" result="BackgroundImageFix"/>
<feColorMatrix in="SourceAlpha" type="matrix" values="0 0 0 0 0 0 0 0 0 0 0 0 0 0 0 0 0 0 127 0"/>
<feMorphology radius="1" operator="dilate" in="SourceAlpha" result="effect1_dropShadow"/>
<feOffset dx="-1"/>
<feGaussianBlur stdDeviation="7"/>
<feColorMatrix type="matrix" values="0 0 0 0 0 0 0 0 0 1 0 0 0 0 0.76 0 0 0 1 0"/>
<feBlend mode="normal" in2="BackgroundImageFix" result="effect1_dropShadow"/>
<feBlend mode="normal" in="SourceGraphic" in2="effect1_dropShadow" result="shape"/>
</filter>
</defs>
</svg>
