<svg width="96" height="93" viewBox="0 0 96 93" fill="none" xmlns="http://www.w3.org/2000/svg">
<g filter="url(#filter0_d)">
<circle cx="47.5" cy="47.5" r="29" stroke="#00FFC2" stroke-width="3"/>
</g>
<path d="M29.5963 47.5532L38.029 51.3088L37.9354 53.9869L26.9395 48.4181L27.0092 46.4232L38.3663 41.6487L38.2728 44.3267L29.5963 47.5532ZM64.9741 48.7066L56.0661 44.8523L56.1567 42.2562L67.645 47.8285L67.5754 49.8234L55.7259 54.5944L55.8175 51.971L64.9741 48.7066Z" fill="#00FFC2"/>
<path d="M49.9752 42.6384L48.155 41.8658L48.1518 41.8646C48.1476 41.8635 48.1431 41.8653 48.1408 41.869L48.1394 41.8721L42.6749 54.7456L42.6746 54.7465C42.6741 54.7476 42.6739 54.7489 42.6739 54.7501L42.674 54.751L42.8119 56.9565C42.8121 56.9597 42.8122 56.9613 42.8125 56.9623C42.8142 56.9685 42.8212 56.9715 42.8269 56.9684C42.8278 56.9679 42.829 56.9669 42.8315 56.9648L42.8315 56.9648L44.5137 55.532L44.5144 55.5314C44.5153 55.5305 44.5161 55.5295 44.5166 55.5284L44.517 55.5276L49.9815 42.654L49.9827 42.6509C49.9838 42.6466 49.982 42.6422 49.9782 42.6399L49.9752 42.6384Z" fill="#00FFC2"/>
<path d="M50.7566 40.7974L48.9364 40.0248L48.9334 40.0234C48.9296 40.0211 48.9278 40.0166 48.9289 40.0124L48.9301 40.0093L49.707 38.1791C50.0977 37.2586 51.9398 38.0406 51.549 38.9611L50.7722 40.7912L50.7708 40.7942C50.7685 40.7979 50.764 40.7997 50.7598 40.7986L50.7566 40.7974Z" fill="#00FFC2"/>
<path d="M49.9752 42.6384L48.155 41.8658L48.1518 41.8646C48.1476 41.8635 48.1431 41.8653 48.1408 41.869L48.1394 41.8721L42.6749 54.7456L42.6746 54.7465C42.6741 54.7476 42.6739 54.7489 42.6739 54.7501L42.674 54.751L42.8119 56.9565C42.8121 56.9597 42.8122 56.9613 42.8125 56.9623C42.8142 56.9685 42.8212 56.9715 42.8269 56.9684C42.8278 56.9679 42.829 56.9669 42.8315 56.9648L42.8315 56.9648L44.5137 55.532L44.5144 55.5314C44.5153 55.5305 44.5161 55.5295 44.5166 55.5284L44.517 55.5276L49.9815 42.654L49.9827 42.6509C49.9838 42.6466 49.982 42.6422 49.9782 42.6399L49.9752 42.6384Z" stroke="#00FFC2"/>
<path d="M50.7566 40.7974L48.9364 40.0248L48.9334 40.0234C48.9296 40.0211 48.9278 40.0166 48.9289 40.0124L48.9301 40.0093L49.707 38.1791C50.0977 37.2586 51.9398 38.0406 51.549 38.9611L50.7722 40.7912L50.7708 40.7942C50.7685 40.7979 50.764 40.7997 50.7598 40.7986L50.7566 40.7974Z" stroke="#00FFC2"/>
<defs>
<filter id="filter0_d" x="1" y="2" width="91" height="91" filterUnits="userSpaceOnUse" color-interpolation-filters="sRGB">
<feFlood flood-opacity="0" result="BackgroundImageFix"/>
<feColorMatrix in="SourceAlpha" type="matrix" values="0 0 0 0 0 0 0 0 0 0 0 0 0 0 0 0 0 0 127 0"/>
<feMorphology radius="1" operator="dilate" in="SourceAlpha" result="effect1_dropShadow"/>
<feOffset dx="-1"/>
<feGaussianBlur stdDeviation="7"/>
<feColorMatrix type="matrix" values="0 0 0 0 0 0 0 0 0 1 0 0 0 0 0.76 0 0 0 1 0"/>
<feBlend mode="normal" in2="BackgroundImageFix" result="effect1_dropShadow"/>
<feBlend mode="normal" in="SourceGraphic" in2="effect1_dropShadow" result="shape"/>
</filter>
</defs>
</svg>
